<mxfile host="app.diagrams.net" modified="2023-11-15T08:21:36.927Z" agent="Mozilla/5.0 (Windows NT 10.0; Win64; x64) AppleWebKit/537.36 (KHTML, like Gecko) Chrome/119.0.0.0 Safari/537.36" etag="w7COOHy6Q_OzlQE0LUZL" version="22.1.1" type="device">
  <diagram name="Page-1" id="iYsalvZI_savkI9JSjro">
    <mxGraphModel dx="1194" dy="716" grid="1" gridSize="10" guides="1" tooltips="1" connect="1" arrows="1" fold="1" page="1" pageScale="1" pageWidth="850" pageHeight="1100" math="0" shadow="0">
      <root>
        <mxCell id="0" />
        <mxCell id="1" parent="0" />
        <mxCell id="6lNhvA9v683qw_sNNKl0-16" style="rounded=0;orthogonalLoop=1;jettySize=auto;html=1;exitX=1;exitY=0.5;exitDx=0;exitDy=0;" edge="1" parent="1" source="6lNhvA9v683qw_sNNKl0-2" target="6lNhvA9v683qw_sNNKl0-11">
          <mxGeometry relative="1" as="geometry" />
        </mxCell>
        <mxCell id="6lNhvA9v683qw_sNNKl0-2" value="Not created" style="ellipse;whiteSpace=wrap;html=1;fillColor=#a0522d;strokeColor=#6D1F00;fontColor=#ffffff;" vertex="1" parent="1">
          <mxGeometry x="340" y="30" width="80" height="80" as="geometry" />
        </mxCell>
        <mxCell id="6lNhvA9v683qw_sNNKl0-3" value="Deleted" style="ellipse;whiteSpace=wrap;html=1;fillColor=#0050ef;fontColor=#ffffff;strokeColor=#001DBC;" vertex="1" parent="1">
          <mxGeometry x="70" y="170" width="90" height="80" as="geometry" />
        </mxCell>
        <mxCell id="6lNhvA9v683qw_sNNKl0-20" style="edgeStyle=none;rounded=0;orthogonalLoop=1;jettySize=auto;html=1;exitX=0;exitY=0.5;exitDx=0;exitDy=0;entryX=1;entryY=0.5;entryDx=0;entryDy=0;" edge="1" parent="1" source="6lNhvA9v683qw_sNNKl0-4" target="6lNhvA9v683qw_sNNKl0-13">
          <mxGeometry relative="1" as="geometry" />
        </mxCell>
        <mxCell id="6lNhvA9v683qw_sNNKl0-22" style="edgeStyle=none;rounded=0;orthogonalLoop=1;jettySize=auto;html=1;exitX=0.5;exitY=1;exitDx=0;exitDy=0;entryX=0.5;entryY=0;entryDx=0;entryDy=0;" edge="1" parent="1" source="6lNhvA9v683qw_sNNKl0-4" target="6lNhvA9v683qw_sNNKl0-12">
          <mxGeometry relative="1" as="geometry" />
        </mxCell>
        <mxCell id="6lNhvA9v683qw_sNNKl0-28" style="edgeStyle=none;rounded=0;orthogonalLoop=1;jettySize=auto;html=1;exitX=0;exitY=0.5;exitDx=0;exitDy=0;" edge="1" parent="1" source="6lNhvA9v683qw_sNNKl0-4" target="6lNhvA9v683qw_sNNKl0-15">
          <mxGeometry relative="1" as="geometry" />
        </mxCell>
        <mxCell id="6lNhvA9v683qw_sNNKl0-4" value="Created" style="ellipse;whiteSpace=wrap;html=1;fillColor=#008a00;fontColor=#ffffff;strokeColor=#005700;" vertex="1" parent="1">
          <mxGeometry x="730" y="320" width="90" height="80" as="geometry" />
        </mxCell>
        <mxCell id="6lNhvA9v683qw_sNNKl0-24" style="edgeStyle=none;rounded=0;orthogonalLoop=1;jettySize=auto;html=1;exitX=0;exitY=0.5;exitDx=0;exitDy=0;entryX=1;entryY=0.5;entryDx=0;entryDy=0;" edge="1" parent="1" source="6lNhvA9v683qw_sNNKl0-5" target="6lNhvA9v683qw_sNNKl0-15">
          <mxGeometry relative="1" as="geometry" />
        </mxCell>
        <mxCell id="6lNhvA9v683qw_sNNKl0-25" style="edgeStyle=none;rounded=0;orthogonalLoop=1;jettySize=auto;html=1;exitX=0.5;exitY=0;exitDx=0;exitDy=0;" edge="1" parent="1" source="6lNhvA9v683qw_sNNKl0-5" target="6lNhvA9v683qw_sNNKl0-13">
          <mxGeometry relative="1" as="geometry" />
        </mxCell>
        <mxCell id="6lNhvA9v683qw_sNNKl0-5" value="Updated" style="ellipse;whiteSpace=wrap;html=1;fillColor=#a20025;strokeColor=#6F0000;fontColor=#ffffff;" vertex="1" parent="1">
          <mxGeometry x="310" y="530" width="100" height="80" as="geometry" />
        </mxCell>
        <mxCell id="6lNhvA9v683qw_sNNKl0-6" value="State diagram for all entities: &lt;b&gt;Users&lt;/b&gt;,&lt;br&gt;&lt;b&gt;Workouts&lt;/b&gt;, &lt;b&gt;Exercises&lt;/b&gt;, &lt;b&gt;Equipment&lt;/b&gt;" style="whiteSpace=wrap;html=1;aspect=fixed;fillColor=#fa6800;fontColor=#000000;strokeColor=#C73500;" vertex="1" parent="1">
          <mxGeometry x="240" y="160" width="130" height="130" as="geometry" />
        </mxCell>
        <mxCell id="6lNhvA9v683qw_sNNKl0-17" style="edgeStyle=none;rounded=0;orthogonalLoop=1;jettySize=auto;html=1;exitX=1;exitY=0.5;exitDx=0;exitDy=0;entryX=0.5;entryY=0;entryDx=0;entryDy=0;" edge="1" parent="1" source="6lNhvA9v683qw_sNNKl0-11" target="6lNhvA9v683qw_sNNKl0-4">
          <mxGeometry relative="1" as="geometry" />
        </mxCell>
        <mxCell id="6lNhvA9v683qw_sNNKl0-18" style="edgeStyle=none;rounded=0;orthogonalLoop=1;jettySize=auto;html=1;exitX=0.5;exitY=1;exitDx=0;exitDy=0;entryX=0.5;entryY=0;entryDx=0;entryDy=0;" edge="1" parent="1" source="6lNhvA9v683qw_sNNKl0-11" target="6lNhvA9v683qw_sNNKl0-13">
          <mxGeometry relative="1" as="geometry" />
        </mxCell>
        <mxCell id="6lNhvA9v683qw_sNNKl0-11" value="Attempt to create" style="rhombus;whiteSpace=wrap;html=1;fillColor=#f8cecc;strokeColor=#b85450;" vertex="1" parent="1">
          <mxGeometry x="500" y="60" width="130" height="110" as="geometry" />
        </mxCell>
        <mxCell id="6lNhvA9v683qw_sNNKl0-23" style="edgeStyle=none;rounded=0;orthogonalLoop=1;jettySize=auto;html=1;exitX=0;exitY=0.5;exitDx=0;exitDy=0;" edge="1" parent="1" source="6lNhvA9v683qw_sNNKl0-12" target="6lNhvA9v683qw_sNNKl0-5">
          <mxGeometry relative="1" as="geometry" />
        </mxCell>
        <mxCell id="6lNhvA9v683qw_sNNKl0-12" value="Valid update" style="rhombus;whiteSpace=wrap;html=1;fillColor=#f8cecc;strokeColor=#b85450;" vertex="1" parent="1">
          <mxGeometry x="560" y="560" width="130" height="110" as="geometry" />
        </mxCell>
        <mxCell id="6lNhvA9v683qw_sNNKl0-19" style="edgeStyle=none;rounded=0;orthogonalLoop=1;jettySize=auto;html=1;exitX=0.5;exitY=0;exitDx=0;exitDy=0;entryX=0.5;entryY=1;entryDx=0;entryDy=0;" edge="1" parent="1" source="6lNhvA9v683qw_sNNKl0-13" target="6lNhvA9v683qw_sNNKl0-2">
          <mxGeometry relative="1" as="geometry" />
        </mxCell>
        <mxCell id="6lNhvA9v683qw_sNNKl0-26" style="edgeStyle=none;rounded=0;orthogonalLoop=1;jettySize=auto;html=1;exitX=0.5;exitY=1;exitDx=0;exitDy=0;entryX=0.92;entryY=0.2;entryDx=0;entryDy=0;entryPerimeter=0;" edge="1" parent="1" source="6lNhvA9v683qw_sNNKl0-13" target="6lNhvA9v683qw_sNNKl0-5">
          <mxGeometry relative="1" as="geometry" />
        </mxCell>
        <mxCell id="6lNhvA9v683qw_sNNKl0-13" value="Invalid update/input" style="rhombus;whiteSpace=wrap;html=1;fillColor=#f8cecc;strokeColor=#b85450;" vertex="1" parent="1">
          <mxGeometry x="480" y="250" width="130" height="110" as="geometry" />
        </mxCell>
        <mxCell id="6lNhvA9v683qw_sNNKl0-27" style="edgeStyle=none;rounded=0;orthogonalLoop=1;jettySize=auto;html=1;exitX=0.5;exitY=0;exitDx=0;exitDy=0;entryX=0.5;entryY=1;entryDx=0;entryDy=0;" edge="1" parent="1" source="6lNhvA9v683qw_sNNKl0-15" target="6lNhvA9v683qw_sNNKl0-3">
          <mxGeometry relative="1" as="geometry" />
        </mxCell>
        <mxCell id="6lNhvA9v683qw_sNNKl0-29" style="edgeStyle=none;rounded=0;orthogonalLoop=1;jettySize=auto;html=1;exitX=0.5;exitY=1;exitDx=0;exitDy=0;fillColor=#FF66B3;entryX=0;entryY=1;entryDx=0;entryDy=0;" edge="1" parent="1" source="6lNhvA9v683qw_sNNKl0-15" target="6lNhvA9v683qw_sNNKl0-5">
          <mxGeometry relative="1" as="geometry">
            <mxPoint x="310" y="590" as="targetPoint" />
          </mxGeometry>
        </mxCell>
        <mxCell id="6lNhvA9v683qw_sNNKl0-30" style="edgeStyle=none;rounded=0;orthogonalLoop=1;jettySize=auto;html=1;exitX=1;exitY=0;exitDx=0;exitDy=0;entryX=0;entryY=1;entryDx=0;entryDy=0;" edge="1" parent="1" source="6lNhvA9v683qw_sNNKl0-15" target="6lNhvA9v683qw_sNNKl0-4">
          <mxGeometry relative="1" as="geometry" />
        </mxCell>
        <mxCell id="6lNhvA9v683qw_sNNKl0-15" value="Deletion request" style="rhombus;whiteSpace=wrap;html=1;fillColor=#f8cecc;strokeColor=#b85450;" vertex="1" parent="1">
          <mxGeometry x="70" y="390" width="130" height="110" as="geometry" />
        </mxCell>
        <mxCell id="6lNhvA9v683qw_sNNKl0-21" style="edgeStyle=none;rounded=0;orthogonalLoop=1;jettySize=auto;html=1;exitX=1;exitY=1;exitDx=0;exitDy=0;entryX=0.1;entryY=0.238;entryDx=0;entryDy=0;entryPerimeter=0;" edge="1" parent="1" source="6lNhvA9v683qw_sNNKl0-13" target="6lNhvA9v683qw_sNNKl0-4">
          <mxGeometry relative="1" as="geometry" />
        </mxCell>
      </root>
    </mxGraphModel>
  </diagram>
</mxfile>
